<mxfile host="app.diagrams.net" modified="2024-05-08T09:16:39.796Z" agent="Mozilla/5.0 (Windows NT 10.0; Win64; x64; rv:126.0) Gecko/20100101 Firefox/126.0" etag="TXqUR2gZR6ffI0XiLB8_" version="24.3.1" type="device">
  <diagram name="Page-1" id="LtSkvB7uPqlBQ3nZqWX6">
    <mxGraphModel dx="1273" dy="882" grid="1" gridSize="10" guides="1" tooltips="1" connect="1" arrows="1" fold="1" page="1" pageScale="1" pageWidth="850" pageHeight="1100" math="0" shadow="0">
      <root>
        <mxCell id="0" />
        <mxCell id="1" parent="0" />
        <mxCell id="uRjU0AcnzxCLm0jL9GGs-37" style="edgeStyle=none;rounded=0;orthogonalLoop=1;jettySize=auto;html=1;" edge="1" parent="1" source="uRjU0AcnzxCLm0jL9GGs-32" target="uRjU0AcnzxCLm0jL9GGs-36">
          <mxGeometry relative="1" as="geometry" />
        </mxCell>
        <mxCell id="uRjU0AcnzxCLm0jL9GGs-32" value="&lt;div&gt;5&lt;/div&gt;&lt;div&gt;10&lt;br&gt;&lt;/div&gt;" style="ellipse;whiteSpace=wrap;html=1;aspect=fixed;" vertex="1" parent="1">
          <mxGeometry x="430" y="20" width="60" height="60" as="geometry" />
        </mxCell>
        <mxCell id="uRjU0AcnzxCLm0jL9GGs-40" value="" style="edgeStyle=none;rounded=0;orthogonalLoop=1;jettySize=auto;html=1;" edge="1" parent="1" source="uRjU0AcnzxCLm0jL9GGs-36" target="uRjU0AcnzxCLm0jL9GGs-39">
          <mxGeometry relative="1" as="geometry" />
        </mxCell>
        <mxCell id="uRjU0AcnzxCLm0jL9GGs-36" value="12" style="ellipse;whiteSpace=wrap;html=1;aspect=fixed;" vertex="1" parent="1">
          <mxGeometry x="430" y="110" width="60" height="60" as="geometry" />
        </mxCell>
        <mxCell id="uRjU0AcnzxCLm0jL9GGs-42" value="" style="edgeStyle=none;rounded=0;orthogonalLoop=1;jettySize=auto;html=1;" edge="1" parent="1" source="uRjU0AcnzxCLm0jL9GGs-39" target="uRjU0AcnzxCLm0jL9GGs-41">
          <mxGeometry relative="1" as="geometry" />
        </mxCell>
        <mxCell id="uRjU0AcnzxCLm0jL9GGs-39" value="13" style="ellipse;whiteSpace=wrap;html=1;aspect=fixed;" vertex="1" parent="1">
          <mxGeometry x="430" y="200" width="60" height="60" as="geometry" />
        </mxCell>
        <mxCell id="uRjU0AcnzxCLm0jL9GGs-45" style="edgeStyle=none;rounded=0;orthogonalLoop=1;jettySize=auto;html=1;exitX=0;exitY=1;exitDx=0;exitDy=0;entryX=1;entryY=0;entryDx=0;entryDy=0;" edge="1" parent="1" source="uRjU0AcnzxCLm0jL9GGs-41" target="uRjU0AcnzxCLm0jL9GGs-43">
          <mxGeometry relative="1" as="geometry" />
        </mxCell>
        <mxCell id="uRjU0AcnzxCLm0jL9GGs-46" style="edgeStyle=none;rounded=0;orthogonalLoop=1;jettySize=auto;html=1;exitX=1;exitY=1;exitDx=0;exitDy=0;entryX=0;entryY=0;entryDx=0;entryDy=0;" edge="1" parent="1" source="uRjU0AcnzxCLm0jL9GGs-41" target="uRjU0AcnzxCLm0jL9GGs-44">
          <mxGeometry relative="1" as="geometry" />
        </mxCell>
        <mxCell id="uRjU0AcnzxCLm0jL9GGs-41" value="&lt;div&gt;14&lt;/div&gt;" style="ellipse;whiteSpace=wrap;html=1;aspect=fixed;" vertex="1" parent="1">
          <mxGeometry x="430" y="290" width="60" height="60" as="geometry" />
        </mxCell>
        <mxCell id="uRjU0AcnzxCLm0jL9GGs-68" style="edgeStyle=orthogonalEdgeStyle;curved=1;rounded=0;orthogonalLoop=1;jettySize=auto;html=1;exitX=0;exitY=0.5;exitDx=0;exitDy=0;entryX=0;entryY=0.5;entryDx=0;entryDy=0;" edge="1" parent="1" source="uRjU0AcnzxCLm0jL9GGs-43" target="uRjU0AcnzxCLm0jL9GGs-67">
          <mxGeometry relative="1" as="geometry" />
        </mxCell>
        <mxCell id="uRjU0AcnzxCLm0jL9GGs-43" value="&lt;div&gt;15&lt;/div&gt;&lt;div&gt;16&lt;br&gt;&lt;/div&gt;" style="ellipse;whiteSpace=wrap;html=1;aspect=fixed;" vertex="1" parent="1">
          <mxGeometry x="350" y="370" width="60" height="60" as="geometry" />
        </mxCell>
        <mxCell id="uRjU0AcnzxCLm0jL9GGs-50" style="edgeStyle=orthogonalEdgeStyle;curved=1;rounded=0;orthogonalLoop=1;jettySize=auto;html=1;exitX=1;exitY=0.5;exitDx=0;exitDy=0;entryX=1;entryY=0.5;entryDx=0;entryDy=0;" edge="1" parent="1" source="uRjU0AcnzxCLm0jL9GGs-44" target="uRjU0AcnzxCLm0jL9GGs-36">
          <mxGeometry relative="1" as="geometry" />
        </mxCell>
        <mxCell id="uRjU0AcnzxCLm0jL9GGs-52" value="" style="rounded=0;orthogonalLoop=1;jettySize=auto;html=1;" edge="1" parent="1" source="uRjU0AcnzxCLm0jL9GGs-44" target="uRjU0AcnzxCLm0jL9GGs-51">
          <mxGeometry relative="1" as="geometry" />
        </mxCell>
        <mxCell id="uRjU0AcnzxCLm0jL9GGs-44" value="19" style="ellipse;whiteSpace=wrap;html=1;aspect=fixed;" vertex="1" parent="1">
          <mxGeometry x="510" y="370" width="60" height="60" as="geometry" />
        </mxCell>
        <mxCell id="uRjU0AcnzxCLm0jL9GGs-54" value="" style="rounded=0;orthogonalLoop=1;jettySize=auto;html=1;" edge="1" parent="1" source="uRjU0AcnzxCLm0jL9GGs-51" target="uRjU0AcnzxCLm0jL9GGs-53">
          <mxGeometry relative="1" as="geometry" />
        </mxCell>
        <mxCell id="uRjU0AcnzxCLm0jL9GGs-51" value="&lt;div&gt;22&lt;/div&gt;&lt;div&gt;23&lt;br&gt;&lt;/div&gt;" style="ellipse;whiteSpace=wrap;html=1;aspect=fixed;" vertex="1" parent="1">
          <mxGeometry x="580" y="440" width="60" height="60" as="geometry" />
        </mxCell>
        <mxCell id="uRjU0AcnzxCLm0jL9GGs-56" value="" style="edgeStyle=orthogonalEdgeStyle;curved=1;rounded=0;orthogonalLoop=1;jettySize=auto;html=1;" edge="1" parent="1" source="uRjU0AcnzxCLm0jL9GGs-53" target="uRjU0AcnzxCLm0jL9GGs-55">
          <mxGeometry relative="1" as="geometry" />
        </mxCell>
        <mxCell id="uRjU0AcnzxCLm0jL9GGs-65" style="edgeStyle=orthogonalEdgeStyle;curved=1;rounded=0;orthogonalLoop=1;jettySize=auto;html=1;exitX=1;exitY=0;exitDx=0;exitDy=0;entryX=1;entryY=0;entryDx=0;entryDy=0;" edge="1" parent="1" source="uRjU0AcnzxCLm0jL9GGs-53" target="uRjU0AcnzxCLm0jL9GGs-36">
          <mxGeometry relative="1" as="geometry">
            <Array as="points">
              <mxPoint x="690" y="549" />
              <mxPoint x="690" y="119" />
            </Array>
          </mxGeometry>
        </mxCell>
        <mxCell id="uRjU0AcnzxCLm0jL9GGs-53" value="25" style="ellipse;whiteSpace=wrap;html=1;aspect=fixed;" vertex="1" parent="1">
          <mxGeometry x="580" y="540" width="60" height="60" as="geometry" />
        </mxCell>
        <mxCell id="uRjU0AcnzxCLm0jL9GGs-58" value="" style="edgeStyle=orthogonalEdgeStyle;curved=1;rounded=0;orthogonalLoop=1;jettySize=auto;html=1;" edge="1" parent="1" source="uRjU0AcnzxCLm0jL9GGs-55" target="uRjU0AcnzxCLm0jL9GGs-57">
          <mxGeometry relative="1" as="geometry" />
        </mxCell>
        <mxCell id="uRjU0AcnzxCLm0jL9GGs-55" value="&lt;div&gt;26&lt;/div&gt;" style="ellipse;whiteSpace=wrap;html=1;aspect=fixed;" vertex="1" parent="1">
          <mxGeometry x="580" y="640" width="60" height="60" as="geometry" />
        </mxCell>
        <mxCell id="uRjU0AcnzxCLm0jL9GGs-60" value="" style="rounded=0;orthogonalLoop=1;jettySize=auto;html=1;" edge="1" parent="1" source="uRjU0AcnzxCLm0jL9GGs-57" target="uRjU0AcnzxCLm0jL9GGs-59">
          <mxGeometry relative="1" as="geometry" />
        </mxCell>
        <mxCell id="uRjU0AcnzxCLm0jL9GGs-63" style="edgeStyle=orthogonalEdgeStyle;curved=1;rounded=0;orthogonalLoop=1;jettySize=auto;html=1;entryX=1;entryY=0.5;entryDx=0;entryDy=0;exitX=1;exitY=0.5;exitDx=0;exitDy=0;" edge="1" parent="1" source="uRjU0AcnzxCLm0jL9GGs-57" target="uRjU0AcnzxCLm0jL9GGs-53">
          <mxGeometry relative="1" as="geometry">
            <Array as="points">
              <mxPoint x="690" y="760" />
              <mxPoint x="690" y="570" />
            </Array>
          </mxGeometry>
        </mxCell>
        <mxCell id="uRjU0AcnzxCLm0jL9GGs-57" value="&lt;div&gt;27&lt;/div&gt;" style="ellipse;whiteSpace=wrap;html=1;aspect=fixed;" vertex="1" parent="1">
          <mxGeometry x="580" y="730" width="60" height="60" as="geometry" />
        </mxCell>
        <mxCell id="uRjU0AcnzxCLm0jL9GGs-64" style="edgeStyle=orthogonalEdgeStyle;curved=1;rounded=0;orthogonalLoop=1;jettySize=auto;html=1;entryX=0;entryY=0.5;entryDx=0;entryDy=0;exitX=0;exitY=0.5;exitDx=0;exitDy=0;" edge="1" parent="1" source="uRjU0AcnzxCLm0jL9GGs-59" target="uRjU0AcnzxCLm0jL9GGs-53">
          <mxGeometry relative="1" as="geometry" />
        </mxCell>
        <mxCell id="uRjU0AcnzxCLm0jL9GGs-59" value="&lt;div&gt;30&lt;/div&gt;&lt;div&gt;31&lt;br&gt;&lt;/div&gt;" style="ellipse;whiteSpace=wrap;html=1;aspect=fixed;" vertex="1" parent="1">
          <mxGeometry x="500" y="810" width="60" height="60" as="geometry" />
        </mxCell>
        <mxCell id="uRjU0AcnzxCLm0jL9GGs-73" style="rounded=0;orthogonalLoop=1;jettySize=auto;html=1;exitX=0;exitY=1;exitDx=0;exitDy=0;entryX=1;entryY=0;entryDx=0;entryDy=0;" edge="1" parent="1" source="uRjU0AcnzxCLm0jL9GGs-67" target="uRjU0AcnzxCLm0jL9GGs-71">
          <mxGeometry relative="1" as="geometry" />
        </mxCell>
        <mxCell id="uRjU0AcnzxCLm0jL9GGs-75" style="rounded=0;orthogonalLoop=1;jettySize=auto;html=1;exitX=1;exitY=1;exitDx=0;exitDy=0;entryX=0;entryY=0;entryDx=0;entryDy=0;" edge="1" parent="1" source="uRjU0AcnzxCLm0jL9GGs-67" target="uRjU0AcnzxCLm0jL9GGs-74">
          <mxGeometry relative="1" as="geometry" />
        </mxCell>
        <mxCell id="uRjU0AcnzxCLm0jL9GGs-67" value="37" style="ellipse;whiteSpace=wrap;html=1;aspect=fixed;" vertex="1" parent="1">
          <mxGeometry x="425" y="890" width="60" height="60" as="geometry" />
        </mxCell>
        <mxCell id="uRjU0AcnzxCLm0jL9GGs-70" style="edgeStyle=orthogonalEdgeStyle;curved=1;rounded=0;orthogonalLoop=1;jettySize=auto;html=1;entryX=0.017;entryY=0.7;entryDx=0;entryDy=0;entryPerimeter=0;exitX=0;exitY=0.5;exitDx=0;exitDy=0;" edge="1" parent="1" source="uRjU0AcnzxCLm0jL9GGs-36" target="uRjU0AcnzxCLm0jL9GGs-67">
          <mxGeometry relative="1" as="geometry">
            <Array as="points">
              <mxPoint x="270" y="140" />
              <mxPoint x="270" y="932" />
            </Array>
          </mxGeometry>
        </mxCell>
        <mxCell id="uRjU0AcnzxCLm0jL9GGs-71" value="38" style="ellipse;whiteSpace=wrap;html=1;aspect=fixed;" vertex="1" parent="1">
          <mxGeometry x="350" y="960" width="60" height="60" as="geometry" />
        </mxCell>
        <mxCell id="uRjU0AcnzxCLm0jL9GGs-74" value="&lt;div&gt;40&lt;/div&gt;&lt;div&gt;42&lt;br&gt;&lt;/div&gt;" style="ellipse;whiteSpace=wrap;html=1;aspect=fixed;" vertex="1" parent="1">
          <mxGeometry x="500" y="960" width="60" height="60" as="geometry" />
        </mxCell>
      </root>
    </mxGraphModel>
  </diagram>
</mxfile>
